# xmcd CD database file
#
# Track frame offsets:
#	150
#	18798
#	32979
#	47953
#	65727
#	91850
#	98671
#	109636
#	126310
#	139418
#	145145
#	162108
#	168723
#	176018
#
# Disc length: 2731 seconds
#
# Revision: 0
# Processed by: cddbd v1.5.2PL0 Copyright (c) Steve Scherf et al.
# Submitted via: CDex 1.51
#
DISCID=c40aa90e
DTITLE=Mike Oldfield - Music Of The Spheres
DYEAR=2007
DGENRE=New Age
TTITLE0=Harbinger
TTITLE1=Animus
TTITLE2=Silhouette
TTITLE3=Shabda
TTITLE4=The Tempest
TTITLE5=Harbinger Reprise
TTITLE6=On My Heart
TTITLE7=Aurora
TTITLE8=Prophecy
TTITLE9=On My Heart Reprise
TTITLE10=Harmonia Mundi
TTITLE11=The Other Side
TTITLE12=Empyrean
TTITLE13=Musica Universalis
EXTD=YEAR: 2007
EXTT0=
EXTT1=
EXTT2=
EXTT3=
EXTT4=
EXTT5=
EXTT6=
EXTT7=
EXTT8=
EXTT9=
EXTT10=
EXTT11=
EXTT12=
EXTT13=
PLAYORDER=
